<svg xmlns="http://www.w3.org/2000/svg" version="1.1" xmlns:xlink="http://www.w3.org/1999/xlink" width="512" height="512"><svg version="1.1" id="SvgjsSvg1008" xmlns="http://www.w3.org/2000/svg" xmlns:xlink="http://www.w3.org/1999/xlink" x="0px" y="0px" viewBox="0 0 512 512" style="enable-background:new 0 0 512 512;" xml:space="preserve">
<style type="text/css">
	.st0{fill:#E85558;}
	.st1{fill:#FFFFFF;}
	.st2{fill:#75B4E2;}
	.st3{fill:#FBC749;}
	.st4{fill:#17171D;}
</style>
<g id="SvgjsG1007">
	<g>
		<path class="st0" d="M273.5,87h-34.9c-17.4,0-32.6,9.5-40.6,23.7h116.2C306,96.6,290.8,87,273.5,87z"></path>
		<path class="st1" d="M177.4,156.9c-1.7,0-3.1,1.4-3.1,3.1v26.2c0,4.5,2.5,8.4,6.2,10.4l0-39.7H177.4z"></path>
		<path class="st2" d="M318.7,121.9H193.3c-0.5,2-0.9,4.1-1.2,6.2h127.7C319.6,126,319.2,124,318.7,121.9z"></path>
		<path class="st1" d="M256,232.9c17.2,0,33.1,5.8,45.8,15.6c11.3-11.6,18.4-27.4,18.4-44.9v-3.9l-9.5,9.5h-39.6L256,194.1
			l-15.1,15.1h-39.6l-9.5-9.5v3.9c0,17.5,7,33.3,18.4,44.9C222.9,238.7,238.8,232.9,256,232.9z"></path>
		<path class="st2" d="M236.2,198l19.8-19.8l19.8,19.8H306l14.2-14.2l0-27H191.8l0,27l14.2,14.2H236.2z M276.6,168.7h11.3v17.5
			h-11.3V168.7z M224.2,168.7h11.3v17.5h-11.3V168.7z"></path>
		<path class="st1" d="M334.6,156.9h-3.1l0,39.7c3.7-2,6.2-5.9,6.2-10.4V160C337.7,158.3,336.3,156.9,334.6,156.9z"></path>
		<path class="st2" d="M330.8,318.1c-0.1,0.7-0.2,1.4-0.3,2.1h5.4C334.2,319.4,332.5,318.7,330.8,318.1z"></path>
		<path class="st0" d="M368.3,355.1c-3.5-9.1-9-17.1-16-23.7h-24.6c-2.8,8.6-7.1,16.6-12.7,23.7H368.3z"></path>
		<polygon class="st0" points="334.6,145.6 337.7,145.6 337.7,139.4 174.3,139.4 174.3,145.6 177.4,145.6 186.2,145.6 325.8,145.6 
					"></polygon>
		<path class="st3" d="M320.2,308.3c0-35.4-28.8-64.2-64.2-64.2s-64.2,28.8-64.2,64.2c0,22.8,12.3,44.1,32.1,55.6l2.8,1.6v24.3h23.6
			v-41.1h-11.8v-11.3h34.9v11.3h-11.8v41.1h23.7v-24.4l2.8-1.6C307.9,352.4,320.2,331.1,320.2,308.3z"></path>
		<polygon class="st1" points="226.7,407.5 273.5,407.5 273.5,418.8 226.7,418.8 226.7,425 285.3,425 285.4,401.3 226.7,401.3 		"></polygon>
		<path class="st2" d="M372.6,390.1l0-11.8c0-4-0.4-8-1.1-11.8h-67.4c-2.4,2-4.9,3.8-7.5,5.5v18.1h0.1H372.6z"></path>
		<polygon class="st0" points="296.6,401.3 296.6,407.5 372.6,407.5 372.6,401.3 		"></polygon>
		<path class="st2" d="M140.5,366.4c-0.7,3.8-1.1,7.8-1.1,11.8v11.8h76.1h0V372c-2.7-1.7-5.2-3.6-7.6-5.6H140.5z"></path>
		<path class="st2" d="M181.2,318.1c-1.7,0.6-3.4,1.4-5,2.1h5.4C181.4,319.5,181.3,318.8,181.2,318.1z"></path>
		<path class="st0" d="M184.2,331.5h-24.6c-7,6.5-12.5,14.6-16,23.7h53.2C191.3,348.1,187,340.1,184.2,331.5z"></path>
		<rect x="139.4" y="401.3" class="st0" width="76.1" height="6.2"></rect>
		<rect x="224.2" y="168.7" class="st4" width="11.3" height="17.5"></rect>
		<rect x="276.6" y="168.7" class="st4" width="11.3" height="17.5"></rect>
		<path class="st4" d="M331.4,306.4c-0.5-19.5-8.5-37.2-21.1-50.4c12-12.5,19.9-29.1,21.1-47.4c10.1-2.5,17.6-11.6,17.6-22.4V160
			c0-1.1-0.1-2.1-0.3-3.1h0.3l0-28.7h-17.7c-2.8-29.4-27.6-52.4-57.7-52.4h-34.9c-30.1,0-54.9,23-57.7,52.4h-17.7v28.7h0.3
			c-0.2,1-0.3,2-0.3,3.1v26.2c0,10.9,7.5,20,17.6,22.4c1.2,18.4,9,34.9,21.1,47.4c-12.7,13.1-20.6,30.8-21.1,50.4
			c-30.4,9.8-52.5,38.3-52.5,71.9v40.6h87.3v17.5h81.1l0-17.5h87.3l0-40.6C383.9,344.6,361.8,316.1,331.4,306.4z M330.8,318.1
			c1.7,0.6,3.4,1.4,5,2.1h-5.4C330.6,319.5,330.7,318.8,330.8,318.1z M352.3,331.5c7,6.5,12.5,14.6,16,23.7h-53.2
			c5.6-7.1,9.9-15.1,12.7-23.7H352.3z M337.7,186.2c0,4.5-2.5,8.4-6.2,10.4l0-39.7h3.1c1.7,0,3.1,1.4,3.1,3.1V186.2z M238.5,87h34.9
			c17.4,0,32.6,9.5,40.6,23.7H197.9C206,96.6,221.2,87,238.5,87z M193.3,121.9h125.4c0.5,2,0.9,4.1,1.2,6.2H192.1
			C192.4,126,192.8,124,193.3,121.9z M174.3,186.2V160c0-1.7,1.4-3.1,3.1-3.1h3.1l0,39.7C176.8,194.6,174.3,190.7,174.3,186.2z
			 M177.4,145.6h-3.1v-6.2h163.3l0,6.2h-3.1h-8.7H186.2H177.4z M191.8,156.9h128.4l0,27L306,198h-30.3L256,178.2L236.2,198h-30.3
			l-14.2-14.2L191.8,156.9z M191.8,203.6v-3.9l9.5,9.5h39.6l15.1-15.1l15.1,15.1h39.6l9.5-9.5v3.9c0,17.5-7,33.3-18.4,44.9
			c-12.7-9.8-28.6-15.6-45.8-15.6c-17.2,0-33.1,5.8-45.8,15.6C198.8,236.9,191.8,221.1,191.8,203.6z M181.2,318.1
			c0.1,0.7,0.2,1.4,0.3,2.1h-5.4C177.8,319.4,179.5,318.7,181.2,318.1z M159.7,331.5h24.6c2.8,8.6,7.1,16.6,12.7,23.7h-53.2
			C147.2,346.1,152.7,338,159.7,331.5z M215.5,407.5h-76.1v-6.2h76.1V407.5z M215.5,390.1L215.5,390.1h-76.1v-11.8
			c0-4,0.4-8,1.1-11.8h67.4c2.4,2,4.9,3.9,7.6,5.6V390.1z M285.3,425h-58.6v-6.2h46.8v-11.3h-46.8v-6.2h58.6L285.3,425z
			 M288.1,363.9l-2.8,1.6v24.4h-23.7v-41.1h11.8v-11.3h-34.9v11.3h11.8v41.1h-23.6v-24.3l-2.8-1.6c-19.8-11.5-32.1-32.8-32.1-55.6
			c0-35.4,28.8-64.2,64.2-64.2s64.2,28.8,64.2,64.2C320.2,331.1,307.9,352.4,288.1,363.9z M296.6,390.1v-18.1
			c2.6-1.7,5.2-3.5,7.5-5.5h67.4c0.7,3.8,1.1,7.8,1.1,11.8l0,11.8H296.6L296.6,390.1z M296.6,407.5l0-6.2h76l0,6.2H296.6z"></path>
	</g>
</g>
</svg><style>@media (prefers-color-scheme: light) { :root { filter: none; } }
@media (prefers-color-scheme: dark) { :root { filter: none; } }
</style></svg>